<?xml version="1.0" standalone="no"?>
<!DOCTYPE svg PUBLIC "-//W3C//DTD SVG 1.1//EN" "http://www.w3.org/Graphics/SVG/1.1/DTD/svg11.dtd" >
<svg xmlns="http://www.w3.org/2000/svg" xmlns:xlink="http://www.w3.org/1999/xlink" version="1.1">
<metadata></metadata>
<defs>
<font id="zx_spectrum_7regular" horiz-adv-x="600" >
<font-face units-per-em="1000" ascent="750" descent="-250" />
<missing-glyph horiz-adv-x="800" />
<glyph horiz-adv-x="0" />
<glyph horiz-adv-x="0" />
<glyph unicode=" "  horiz-adv-x="800" />
<glyph unicode="&#x09;" horiz-adv-x="800" />
<glyph unicode="&#xa0;" horiz-adv-x="800" />
<glyph unicode="!" horiz-adv-x="625" d="M125 600h100v-400h-100v400zM125 100h100v-100h-100v100z" />
<glyph unicode="&#x22;" d="M0 500h100v-200h-100v200zM300 500h100v-200h-100v200z" />
<glyph unicode="#" d="M-100 500h100v100h100v-100h200v100h100v-100h100v-100h-100v-200h100v-100h-100v-100h-100v100h-200v-100h-100v100h-100v100h100v200h-100v100zM100 200h200v200h-200v-200z" />
<glyph unicode="$" horiz-adv-x="575" d="M-25 525h200v100h100v-100h200v-100h-200v-100h200v-300h-200v-100h-100v100h-200v100h200v100h-200v300zM275 125h100v100h-100v-100zM75 325h100v100h-100v-100z" />
<glyph unicode="%" d="M-100 100h100v100h100v100h100v100h100v100h100v100h100v-100h-100v-100h-100v-100h-100v-100h-100v-100h-100v-100h-100v100zM-100 600h200v-200h-200v200zM300 200h200v-200h-200v200z" />
<glyph unicode="&#x26;" d="M0 500h100v100h100v-100h100v-100h-100v-100h100v-100h100v100h100v-100h-100v-100h100v-100h-100v100h-100v-100h-300v100h-100v100h100v100h100v100h-100v100zM200 300h-100v-100h-100v-100h300v100h-100v100zM100 400h100v100h-100v-100z" />
<glyph unicode="'" d="M100 400h100v100h100v-100h-100v-100h-100v100z" />
<glyph unicode="(" horiz-adv-x="550" d="M150 500h100v100h100v-100h-100v-400h100v-100h-100v100h-100v400z" />
<glyph unicode=")" horiz-adv-x="650" d="M50 600h100v-100h100v-400h-100v-100h-100v100h100v400h-100v100z" />
<glyph unicode="*" horiz-adv-x="575" d="M75 525h100v-100h100v100h100v-100h-100v-100h200v-100h-200v-100h100v-100h-100v100h-100v-100h-100v100h100v100h-200v100h200v100h-100v100z" />
<glyph unicode="+" horiz-adv-x="575" d="M-25 325h200v200h100v-200h200v-100h-200v-200h-100v200h-200v100z" />
<glyph unicode="," d="M100 125h100v200h100v-200h-100v-100h-100v100z" />
<glyph unicode="-" horiz-adv-x="575" d="M-25 325h500v-100h-500v100z" />
<glyph unicode="." d="M100 300h200v-200h-200v200z" />
<glyph unicode="/" horiz-adv-x="575" d="M-25 125h100v100h100v100h100v100h100v100h100v-100h-100v-100h-100v-100h-100v-100h-100v-100h-100v100z" />
<glyph unicode="0" d="M-100 500h100v100h400v-100h100v-400h-100v-100h-400v100h-100v400zM0 200h100v100h100v100h100v100h-300v-300zM200 300v-100h-100v-100h300v300h-100v-100h-100z" />
<glyph unicode="1" horiz-adv-x="575" d="M-25 500h100v100h200v-500h200v-100h-500v100h200v400h-100v-100h-100v100z" />
<glyph unicode="2" d="M-100 500h100v100h400v-100h100v-200h-100v-100h-400v-100h500v-100h-600v200h100v100h400v200h-400v-100h-100v100z" />
<glyph unicode="3" d="M-100 500h100v100h400v-100h100v-100h-100v-100h100v-200h-100v-100h-400v100h-100v100h100v-100h400v200h-200v100h200v100h-400v-100h-100v100z" />
<glyph unicode="4" d="M-100 300h100v100h100v100h100v100h100v-400h200v-100h-200v-100h-100v100h-300v200zM200 400h-100v-100h-100v-100h200v200z" />
<glyph unicode="5" d="M-100 600h600v-100h-500v-100h400v-100h100v-200h-100v-100h-400v100h-100v100h100v-100h400v200h-500v300z" />
<glyph unicode="6" d="M-100 500h100v100h400v-100h-400v-100h400v-100h100v-200h-100v-100h-400v100h-100v400zM0 100h400v200h-400v-200z" />
<glyph unicode="7" d="M-100 600h600v-200h-100v-100h-100v-100h-100v-200h-100v200h100v100h100v100h100v100h-500v100z" />
<glyph unicode="8" d="M-100 500h100v100h400v-100h100v-100h-100v-100h100v-200h-100v-100h-400v100h-100v200h100v100h-100v100zM0 100h400v200h-400v-200zM0 400h400v100h-400v-100z" />
<glyph unicode="9" d="M-100 500h100v100h400v-100h100v-400h-100v-100h-400v100h400v100h-400v100h-100v200zM0 300h400v200h-400v-200z" />
<glyph unicode=":" horiz-adv-x="625" d="M125 450h100v-100h-100v100zM125 150h100v-100h-100v100z" />
<glyph unicode=";" horiz-adv-x="650" d="M50 50h100v200h100v-200h-100v-100h-100v100zM150 550h100v-100h-100v100z" />
<glyph unicode="&#x3c;" horiz-adv-x="575" d="M75 325h100v100h100v100h100v-100h-100v-100h-100v-100h100v-100h100v-100h-100v100h-100v100h-100v100z" />
<glyph unicode="=" horiz-adv-x="575" d="M-25 425h500v-100h-500v100zM-25 225h500v-100h-500v100z" />
<glyph unicode="&#x3e;" horiz-adv-x="575" d="M75 525h100v-100h100v-100h100v-100h-100v-100h-100v-100h-100v100h100v100h100v100h-100v100h-100v100z" />
<glyph unicode="?" d="M200 300h100v100h100v100h-400v-100h-100v100h100v100h400v-100h100v-100h-100v-100h-100v-100h-100v100zM200 100h100v-100h-100v100z" />
<glyph unicode="@" d="M-100 500h100v100h400v-100h100v-300h-400v200h100v100h-200v-400h400v-100h-400v100h-100v400zM200 300h100v100h-100v-100zM300 400h100v100h-100v-100z" />
<glyph unicode="A" d="M-100 500h100v100h400v-100h100v-500h-100v200h-400v-200h-100v500zM0 300h400v200h-400v-200z" />
<glyph unicode="B" d="M-100 600h500v-100h100v-100h-100v-100h100v-200h-100v-100h-500v600zM0 100h400v200h-400v-200zM0 400h400v100h-400v-100z" />
<glyph unicode="C" d="M400 500h-400v-400h400v100h100v-100h-100v-100h-400v100h-100v400h100v100h400v-100h100v-100h-100v100z" />
<glyph unicode="D" d="M-100 600h400v-100h100v-100h100v-200h-100v-100h-100v-100h-400v600zM300 500h-300v-400h300v100h100v200h-100v100z" />
<glyph unicode="E" d="M-100 600h600v-100h-500v-100h400v-100h-400v-200h500v-100h-600v600z" />
<glyph unicode="F" d="M-100 600h600v-100h-500v-100h400v-100h-400v-300h-100v600z" />
<glyph unicode="G" d="M-100 500h100v100h400v-100h100v-100h-100v100h-400v-400h400v100h-200v100h300v-200h-100v-100h-400v100h-100v400z" />
<glyph unicode="H" d="M-100 600h100v-200h400v200h100v-600h-100v300h-400v-300h-100v600z" />
<glyph unicode="I" horiz-adv-x="575" d="M-25 600h500v-100h-200v-400h200v-100h-500v100h200v400h-200v100z" />
<glyph unicode="J" d="M-100 300h100v-200h400v500h100v-500h-100v-100h-400v100h-100v200z" />
<glyph unicode="K" d="M-100 600h100v-200h200v100h100v100h100v-100h-100v-100h-100v-100h100v-100h100v-100h100v-100h-100v100h-100v100h-100v100h-200v-300h-100v600z" />
<glyph unicode="L" d="M-100 600h100v-500h500v-100h-600v600z" />
<glyph unicode="M" d="M-100 600h100v-100h100v-100h200v100h100v100h100v-600h-100v400h-100v-100h-200v100h-100v-400h-100v600z" />
<glyph unicode="N" d="M-100 600h100v-100h100v-100h100v-100h100v-100h100v400h100v-600h-100v100h-100v100h-100v100h-100v100h-100v-400h-100v600z" />
<glyph unicode="O" d="M-100 500h100v100h400v-100h100v-400h-100v-100h-400v100h-100v400zM0 100h400v400h-400v-400z" />
<glyph unicode="P" d="M-100 600h500v-100h100v-200h-100v-100h-400v-200h-100v600zM0 300h400v200h-400v-200z" />
<glyph unicode="Q" d="M-100 500h100v100h400v-100h100v-400h-100v-100h-400v100h-100v400zM100 300h100v-100h100v-100h100v400h-400v-400h200v100h-100v100z" />
<glyph unicode="R" d="M-100 600h500v-100h100v-200h-100v-200h100v-100h-100v100h-100v100h-300v-200h-100v600zM0 500v-200h400v198z" />
<glyph unicode="S" d="M-100 500h100v100h400v-100h-400v-100h400v-100h100v-200h-100v-100h-400v100h-100v100h100v-100h400v200h-400v100h-100v100z" />
<glyph unicode="T" horiz-adv-x="625" d="M-175 600h700v-100h-300v-500h-100v500h-300v100z" />
<glyph unicode="U" d="M-100 600h100v-500h400v500h100v-500h-100v-100h-400v100h-100v500z" />
<glyph unicode="V" d="M-100 600h100v-400h100v-100h200v100h100v400h100v-400h-100v-100h-100v-100h-200v100h-100v100h-100v400z" />
<glyph unicode="W" d="M-100 600h100v-500h100v100h200v-100h100v500h100v-500h-100v-100h-100v100h-200v-100h-100v100h-100v500z" />
<glyph unicode="X" d="M-100 600h100v-100h100v-100h200v100h100v100h100v-100h-100v-100h-100v-200h100v-100h100v-100h-100v100h-100v100h-200v-100h-100v-100h-100v100h100v100h100v200h-100v100h-100v100z" />
<glyph unicode="Y" horiz-adv-x="625" d="M-175 600h100v-100h100v-100h100v-100h100v100h100v100h100v100h100v-100h-100v-100h-100v-100h-100v-300h-100v300h-100v100h-100v100h-100v100z" />
<glyph unicode="Z" d="M-100 600h600v-100h-100v-100h-100v-100h-100v-100h-100v-100h400v-100h-600v100h100v100h100v100h100v100h100v100h-400v100z" />
<glyph unicode="[" horiz-adv-x="525" d="M125 600h300v-100h-200v-400h200v-100h-300v600z" />
<glyph unicode="\" horiz-adv-x="625" d="M-75 525h100v-100h100v-100h100v-100h100v-100h100v-100h-100v100h-100v100h-100v100h-100v100h-100v100z" />
<glyph unicode="]" horiz-adv-x="675" d="M-25 600h300v-600h-300v100h200v400h-200v100z" />
<glyph unicode="^" horiz-adv-x="625" d="M-75 400h100v100h100v100h100v-100h100v-100h100v-100h-100v100h-100v-400h-100v400h-100v-100h-100v100z" />
<glyph unicode="_" d="M-200 175h800v-100h-800v100z" />
<glyph unicode="`" d="M100 500h100v-100h100v-100h-100v100h-100v100z" />
<glyph unicode="a" horiz-adv-x="625" d="M25 525h300v-100h100v-400h-400v100h-100v100h100v100h300v100h-300v100zM25 125h300v100h-300v-100z" />
<glyph unicode="b" horiz-adv-x="575" d="M-25 600h100v-200h300v-100h100v-200h-100v-100h-400v600zM75 300v-200h300v198z" />
<glyph unicode="c" d="M0 425h100v100h300v-100h-300v-300h300v-100h-300v100h-100v300z" />
<glyph unicode="d" horiz-adv-x="625" d="M-75 300h100v100h300v200h100v-600h-400v100h-100v200zM25 100h300v200h-300v-200z" />
<glyph unicode="e" horiz-adv-x="625" d="M-75 425h100v100h300v-100h100v-100h-100v-100h-300v-100h400v-100h-400v100h-100v300zM25 325h300v100h-300v-100z" />
<glyph unicode="f" horiz-adv-x="575" d="M75 500h100v100h200v-100h-200v-100h100v-100h-100v-300h-100v500z" />
<glyph unicode="g" horiz-adv-x="625" d="M-75 450h100v100h400v-500h-100v-100h-300v100h300v100h-300v100h-100v200zM25 250h300v200h-300v-200z" />
<glyph unicode="h" horiz-adv-x="625" d="M-75 600h100v-200h300v-100h100v-300h-100v300h-300v-300h-100v600z" />
<glyph unicode="i" horiz-adv-x="625" d="M25 400h200v-300h100v-100h-300v100h100v200h-100v100zM125 600h100v-100h-100v100z" />
<glyph unicode="j" d="M0 125h100v-100h200v400h100v-400h-100v-100h-200v100h-100v100zM300 625h100v-100h-100v100z" />
<glyph unicode="k" d="M0 600h100v-200h100v100h100v-100h-100v-200h100v-100h100v-100h-100v100h-100v100h-100v-200h-100v600z" />
<glyph unicode="l" horiz-adv-x="575" d="M75 600h100v-500h200v-100h-200v100h-100v500z" />
<glyph unicode="m" horiz-adv-x="625" d="M-75 525h200v-100h100v100h100v-100h100v-400h-100v400h-100v-400h-100v400h-100v-400h-100v500z" />
<glyph unicode="n" horiz-adv-x="625" d="M-75 525h400v-100h100v-400h-100v400h-300v-400h-100v500z" />
<glyph unicode="o" horiz-adv-x="625" d="M-75 425h100v100h300v-100h100v-300h-100v-100h-300v100h-100v300zM25 125h300v300h-300v-300z" />
<glyph unicode="p" horiz-adv-x="625" d="M-75 550h400v-100h100v-200h-100v-100h-300v-200h-100v600zM325 450h-300v-200h300v200z" />
<glyph unicode="q" d="M-100 450h100v100h400v-500h100v-100h-200v200h-300v100h-100v200zM0 250h300v200h-300v-200z" />
<glyph unicode="r" d="M0 425h100v100h300v-100h-300v-400h-100v400z" />
<glyph unicode="s" horiz-adv-x="625" d="M-75 425h100v100h300v-100h-300v-100h300v-100h100v-100h-100v-100h-400v100h400v100h-300v100h-100v100z" />
<glyph unicode="t" d="M0 500h100v100h100v-100h100v-100h-100v-300h200v-100h-200v100h-100v300h-100v100z" />
<glyph unicode="u" horiz-adv-x="625" d="M-75 525h100v-400h300v400h100v-400h-100v-100h-300v100h-100v400z" />
<glyph unicode="v" horiz-adv-x="625" d="M-75 525h100v-200h100v-200h100v200h100v200h100v-200h-100v-200h-100v-100h-100v100h-100v200h-100v200z" />
<glyph unicode="w" horiz-adv-x="625" d="M-75 525h100v-400h100v300h100v-300h100v400h100v-400h-100v-100h-100v100h-100v-100h-100v100h-100v400z" />
<glyph unicode="x" horiz-adv-x="625" d="M-75 525h100v-100h100v-100h100v100h100v100h100v-100h-100v-100h-100v-100h100v-100h100v-100h-100v100h-100v100h-100v-100h-100v-100h-100v100h100v100h100v100h-100v100h-100v100z" />
<glyph unicode="y" horiz-adv-x="625" d="M-75 550h100v-300h300v300h100v-500h-100v-100h-300v100h300v100h-300v100h-100v300z" />
<glyph unicode="z" horiz-adv-x="625" d="M-75 525h500v-100h-100v-100h-100v-100h-100v-100h300v-100h-500v100h100v100h100v100h100v100h-300v100z" />
<glyph unicode="{" horiz-adv-x="575" d="M-25 400h200v200h300v-100h-200v-100h-100v-100h100v-200h200v-100h-300v300h-200v100z" />
<glyph unicode="|" horiz-adv-x="575" d="M175 600h100v-600h-100v600z" />
<glyph unicode="}" horiz-adv-x="625" d="M-75 600h300v-200h200v-100h-200v-300h-300v100h200v200h100v100h-100v100h-200v100z" />
<glyph unicode="~" d="M0 400h100v100h100v-100h100v100h100v-100h-100v-100h-100v100h-100v-100h-100v100z" />
<glyph unicode="&#xa1;" horiz-adv-x="625" d="M125 400h100v-400h-100v400zM125 600h100v-100h-100v100z" />
<glyph unicode="&#xa2;" d="M-100 425h100v100h200v100h100v-100h200v-100h-200v-300h200v-100h-200v-100h-100v100h-200v100h-100v300zM0 125h200v300h-200v-300z" />
<glyph unicode="&#xa3;" d="M-100 100h100v200h-100v100h100v100h100v-100h200v-100h-200v-200h400v-100h-600v100zM400 500h-300v100h300v-100h100v-100h-100v100z" />
<glyph unicode="&#xa4;" horiz-adv-x="625" d="M-75 525h100v-100h300v100h100v-100h-100v-300h100v-100h-100v100h-300v-100h-100v100h100v300h-100v100zM125 225h100v100h-100v-100z" />
<glyph unicode="&#xa5;" horiz-adv-x="625" d="M-75 625h100v-100h100v-100h100v100h100v100h100v-100h-100v-100h-100v-100h200v-100h-200v-100h200v-100h-200v-100h-100v100h-200v100h200v100h-200v100h200v100h-100v100h-100v100z" />
<glyph unicode="&#xa6;" horiz-adv-x="625" d="M125 600h100v-200h-100v200zM125 200h100v-200h-100v200z" />
<glyph unicode="&#xa7;" d="M-100 425h500v100h-500v100h600v-500h-500v-100h500v-100h-600v500zM0 225h400v100h-400v-100z" />
<glyph unicode="&#xa8;" horiz-adv-x="625" d="M25 475h100v-100h-100v100zM225 475h100v-100h-100v100z" />
<glyph unicode="&#xa9;" d="M-200 500h100v100h100v100h400v-100h100v-100h100v-400h-100v-100h-100v-100h-400v100h-100v100h-100v400zM400 600h-400v-100h-100v-400h100v-100h400v100h100v400h-100v100zM0 400h100v100h200v-100h-200v-200h200v-100h-200v100h-100v200z" />
<glyph unicode="&#xaa;" d="M100 575h200v-100h100v-400h-300v100h-100v100h100v100h200v100h-200v100zM100 175h200v100h-200v-100z" />
<glyph unicode="&#xab;" d="M-100 400h100v100h100v100h100v-100h-100v-100h-100v-200h100v-100h100v-100h-100v100h-100v100h-100v200zM200 400h100v100h100v100h100v-100h-100v-100h-100v-200h100v-100h100v-100h-100v100h-100v100h-100v200z" />
<glyph unicode="&#xac;" d="M-100 525h600v-300h-100v200h-500v100z" />
<glyph unicode="&#xad;" d="M0 325h400v-100h-400v100z" />
<glyph unicode="&#xae;" d="M-200 500h100v100h100v100h400v-100h100v-100h100v-400h-100v-100h-100v-100h-400v100h-100v100h-100v400zM100 100h-100v-100h400v100h-100v100h-200v-100zM500 500h-100v-200h-100v-100h100v-100h100v400zM0 500h-100v-400h100v400zM0 500h400v100h-400v-100zM100 400 v-100h200v100h-200z" />
<glyph unicode="&#xb0;" d="M0 450h100v100h200v-100h100v-200h-100v-100h-200v100h-100v200zM100 250h200v200h-200v-200z" />
<glyph unicode="&#xb1;" horiz-adv-x="575" d="M-25 425h200v200h100v-200h200v-100h-200v-200h-100v200h-200v100zM-25 25h500v-100h-500v100z" />
<glyph unicode="&#xb2;" d="M0 575h300v-100h100v-100h-100v-100h-200v-100h300v-100h-400v200h100v100h200v100h-300v100z" />
<glyph unicode="&#xb3;" d="M100 375h200v100h-300v100h300v-100h100v-100h-100v-100h100v-100h-100v-100h-300v100h300v100h-200v100z" />
<glyph unicode="&#xb4;" d="M100 400h100v100h100v-100h-100v-100h-100v100z" />
<glyph unicode="&#xb5;" horiz-adv-x="625" d="M-75 625h100v-400h100v-100h100v100h100v400h100v-600h-100v100h-100v-100h-100v100h-100v-200h-100v700z" />
<glyph unicode="&#xb6;" horiz-adv-x="625" d="M-75 600h500v-100h-100v-500h-100v500h-100v-500h-100v400h-100v200z" />
<glyph unicode="&#xb7;" d="M100 400h200v-200h-200v200z" />
<glyph unicode="&#xb8;" horiz-adv-x="675" d="M-25 100h200v100h100v-100h-100v-100h-200v100z" />
<glyph unicode="&#xb9;" horiz-adv-x="575" d="M75 575h200v-400h100v-100h-300v100h100v300h-100v100z" />
<glyph unicode="&#xba;" d="M0 475h100v100h200v-100h100v-300h-100v-100h-200v100h-100v300zM100 175h200v300h-200v-300z" />
<glyph unicode="&#xbb;" d="M-100 600h100v-100h100v-100h100v-200h-100v-100h-100v-100h-100v100h100v100h100v200h-100v100h-100v100zM200 600h100v-100h100v-100h100v-200h-100v-100h-100v-100h-100v100h100v100h100v200h-100v100h-100v100z" />
<glyph unicode="&#xbf;" d="M-100 200h100v100h100v100h100v-100h-100v-100h-100v-100h400v100h100v-100h-100v-100h-400v100h-100v100zM100 600h100v-100h-100v100z" />
<glyph unicode="&#xc0;" d="M-100 425h100v100h400v-100h100v-500h-100v200h-400v-200h-100v500zM0 225h400v200h-400v-200zM0 825h100v-100h100v-100h-100v100h-100v100z" />
<glyph unicode="&#xc1;" d="M-100 425h100v100h400v-100h100v-500h-100v200h-400v-200h-100v500zM0 225h400v200h-400v-200zM200 725h100v100h100v-100h-100v-100h-100v100z" />
<glyph unicode="&#xc2;" d="M-100 425h100v100h400v-100h100v-500h-100v200h-400v-200h-100v500zM0 225h400v200h-400v-200zM0 725h100v100h200v-100h100v-100h-100v100h-200v-100h-100v100z" />
<glyph unicode="&#xc3;" d="M-100 425h100v100h400v-100h100v-500h-100v200h-400v-200h-100v500zM0 225h400v200h-400v-200zM0 725h100v100h100v-100h100v100h100v-100h-100v-100h-100v100h-100v-100h-100v100z" />
<glyph unicode="&#xc4;" d="M-100 450h100v100h400v-100h100v-500h-100v200h-400v-200h-100v500zM0 250h400v200h-400v-200zM300 750h100v-100h-100v100zM0 750h100v-100h-100v100z" />
<glyph unicode="&#xc5;" d="M-100 450h100v200h100v100h200v-100h100v-200h100v-500h-100v200h-400v-200h-100v500zM0 250h400v200h-400v-200zM100 550h200v100h-200v-100z" />
<glyph unicode="&#xc6;" d="M-100 500h100v100h500v-100h-200v-100h100v-100h-100v-200h200v-100h-300v300h-200v-300h-100v500zM0 400h200v100h-200v-100z" />
<glyph unicode="&#xc7;" d="M-100 550h100v100h400v-100h100v-100h-100v100h-400v-400h400v100h100v-100h-100v-100h-200v-100h-100v-100h-200v100h200v100h-100v100h-100v400z" />
<glyph unicode="&#xc8;" d="M-100 525h600v-100h-500v-100h400v-100h-400v-200h500v-100h-600v600zM0 825h100v-100h100v-100h-100v100h-100v100z" />
<glyph unicode="&#xc9;" d="M-100 525h600v-100h-500v-100h400v-100h-400v-200h500v-100h-600v600zM200 725h100v100h100v-100h-100v-100h-100v100z" />
<glyph unicode="&#xca;" d="M-100 525h600v-100h-500v-100h400v-100h-400v-200h500v-100h-600v600zM300 725h-200v-100h-100v100h100v100h200v-100h100v-100h-100v100z" />
<glyph unicode="&#xcb;" d="M-100 550h600v-100h-500v-100h400v-100h-400v-200h500v-100h-600v600zM0 750h100v-100h-100v100zM300 750h100v-100h-100v100z" />
<glyph unicode="&#xcc;" horiz-adv-x="575" d="M-25 25h200v400h-200v100h500v-100h-200v-400h200v-100h-500v100zM75 825h100v-100h100v-100h-100v100h-100v100z" />
<glyph unicode="&#xcd;" horiz-adv-x="575" d="M-25 525h500v-100h-200v-400h200v-100h-500v100h200v400h-200v100zM175 725h100v100h100v-100h-100v-100h-100v100z" />
<glyph unicode="&#xce;" horiz-adv-x="575" d="M-25 525h500v-100h-200v-400h200v-100h-500v100h200v400h-200v100zM-25 725h100v100h100v-100h-100v-100h-100v100zM275 825h100v-100h100v-100h-100v100h-100v100z" />
<glyph unicode="&#xcf;" horiz-adv-x="575" d="M-25 50h200v400h-200v100h500v-100h-200v-400h200v-100h-500v100zM275 750h100v-100h-100v100zM75 750h100v-100h-100v100z" />
<glyph unicode="&#xd0;" d="M-100 400h100v200h300v-100h100v-100h100v-200h-100v-100h-100v-100h-300v300h-100v100zM300 500h-200v-100h100v-100h-100v-200h200v100h100v200h-100v100z" />
<glyph unicode="&#xd1;" d="M-100 525h100v-100h100v-100h100v-100h100v-100h100v400h100v-600h-100v100h-100v100h-100v100h-100v100h-100v-400h-100v600zM0 725h100v100h100v-100h100v100h100v-100h-100v-100h-100v100h-100v-100h-100v100z" />
<glyph unicode="&#xd2;" d="M-100 425h100v100h400v-100h100v-400h-100v-100h-400v100h-100v400zM0 25h400v400h-400v-400zM0 825h100v-100h100v-100h-100v100h-100v100z" />
<glyph unicode="&#xd3;" d="M-100 425h100v100h400v-100h100v-400h-100v-100h-400v100h-100v400zM0 25h400v400h-400v-400zM200 725h100v100h100v-100h-100v-100h-100v100z" />
<glyph unicode="&#xd4;" d="M-100 425h100v100h400v-100h100v-400h-100v-100h-400v100h-100v400zM0 25h400v400h-400v-400zM0 725h100v100h200v-100h100v-100h-100v100h-200v-100h-100v100z" />
<glyph unicode="&#xd5;" d="M-100 425h100v100h400v-100h100v-400h-100v-100h-400v100h-100v400zM0 25h400v400h-400v-400zM0 725h100v100h100v-100h100v100h100v-100h-100v-100h-100v100h-100v-100h-100v100z" />
<glyph unicode="&#xd6;" d="M-100 450h100v100h400v-100h100v-400h-100v-100h-400v100h-100v400zM0 50h400v400h-400v-400zM300 750h100v-100h-100v100zM0 750h100v-100h-100v100z" />
<glyph unicode="&#xd7;" horiz-adv-x="575" d="M75 425h100v-100h100v100h100v-100h-100v-100h100v-100h-100v100h-100v-100h-100v100h100v100h-100v100z" />
<glyph unicode="&#xd8;" d="M-100 500h100v-300h100v-100h300v-100h-500v500zM0 600h500v-500h-100v300h-100v100h-300v100zM200 300v100h100v-100h-100zM200 300v-100h-100v100h100z" />
<glyph unicode="&#xd9;" d="M-100 525h100v-500h400v500h100v-500h-100v-100h-400v100h-100v500zM0 825h100v-100h100v-100h-100v100h-100v100z" />
<glyph unicode="&#xda;" d="M-100 525h100v-500h400v500h100v-500h-100v-100h-400v100h-100v500zM200 725h100v100h100v-100h-100v-100h-100v100z" />
<glyph unicode="&#xdb;" d="M-100 525h100v-500h400v500h100v-500h-100v-100h-400v100h-100v500zM300 725h-200v-100h-100v100h100v100h200v-100h100v-100h-100v100z" />
<glyph unicode="&#xdc;" d="M-100 550h100v-500h400v500h100v-500h-100v-100h-400v100h-100v500zM0 750h100v-100h-100v100zM300 750h100v-100h-100v100z" />
<glyph unicode="&#xdd;" horiz-adv-x="625" d="M-175 525h100v-100h100v-100h100v-100h100v100h100v100h100v100h100v-100h-100v-100h-100v-100h-100v-300h-100v300h-100v100h-100v100h-100v100zM125 725h100v100h100v-100h-100v-100h-100v100z" />
<glyph unicode="&#xde;" d="M-100 600h100v-100h400v-100h100v-200h-100v-100h-400v-100h-100v600zM0 200h400v200h-400v-200z" />
<glyph unicode="&#xdf;" horiz-adv-x="625" d="M-75 525h100v100h300v-100h100v-100h-100v-100h100v-200h-100v-100h-200v100h200v200h-300v-400h-100v600zM25 425h300v100h-300v-100z" />
<glyph unicode="&#xe0;" horiz-adv-x="625" d="M25 450h300v-100h100v-400h-400v100h-100v100h100v100h300v100h-300v100zM25 50h300v100h-300v-100zM25 750h100v-100h100v-100h-100v100h-100v100z" />
<glyph unicode="&#xe1;" horiz-adv-x="625" d="M25 450h300v-100h100v-400h-400v100h-100v100h100v100h300v100h-300v100zM25 50h300v100h-300v-100zM125 650h100v100h100v-100h-100v-100h-100v100z" />
<glyph unicode="&#xe2;" horiz-adv-x="625" d="M25 450h300v-100h100v-400h-400v100h-100v100h100v100h300v100h-300v100zM25 650h100v100h100v-100h100v-100h-100v100h-100v-100h-100v100zM25 50h300v100h-300v-100z" />
<glyph unicode="&#xe3;" horiz-adv-x="625" d="M25 450h300v-100h100v-400h-400v100h-100v100h100v100h300v100h-300v100zM25 650h100v100h100v-100h100v100h100v-100h-100v-100h-100v100h-100v-100h-100v100zM25 50h300v100h-300v-100z" />
<glyph unicode="&#xe4;" horiz-adv-x="625" d="M25 475h300v-100h100v-400h-400v100h-100v100h100v100h300v100h-300v100zM25 75h300v100h-300v-100zM25 675h100v-100h-100v100zM225 675h100v-100h-100v100z" />
<glyph unicode="&#xe5;" horiz-adv-x="625" d="M25 425h300v-100h100v-400h-400v100h-100v100h100v100h300v100h-300v100zM25 725h100v100h100v-100h100v-100h-100v-100h-100v100h-100v100zM25 25h300v100h-300v-100zM125 625h100v100h-100v-100z" />
<glyph unicode="&#xe6;" horiz-adv-x="625" d="M-75 525h200v-100h100v100h200v-100h100v-100h-100v-100h-200v-100h200v-100h-200v100h-100v-100h-200v100h-100v100h100v100h200v100h-200v100zM-75 125h200v100h-200v-100zM225 325h200v100h-200v-100z" />
<glyph unicode="&#xe7;" horiz-adv-x="625" d="M-75 475h100v100h400v-100h-400v-300h400v-100h-200v-100h-100v-100h-200v100h200v100h-100v100h-100v300z" />
<glyph unicode="&#xe8;" horiz-adv-x="625" d="M-75 350h100v100h300v-100h100v-100h-100v-100h-300v-100h400v-100h-400v100h-100v300zM25 250h300v100h-300v-100zM25 750h100v-100h100v-100h-100v100h-100v100z" />
<glyph unicode="&#xe9;" horiz-adv-x="625" d="M-75 350h100v100h300v-100h100v-100h-100v-100h-300v-100h400v-100h-400v100h-100v300zM25 250h300v100h-300v-100zM125 650h100v100h100v-100h-100v-100h-100v100z" />
<glyph unicode="&#xea;" horiz-adv-x="625" d="M-75 350h100v100h300v-100h100v-100h-100v-100h-300v-100h400v-100h-400v100h-100v300zM25 650h100v100h100v-100h100v-100h-100v100h-100v-100h-100v100zM25 250h300v100h-300v-100z" />
<glyph unicode="&#xeb;" horiz-adv-x="625" d="M-75 375h100v100h300v-100h100v-100h-100v-100h-300v-100h400v-100h-400v100h-100v300zM25 275h300v100h-300v-100zM225 675h100v-100h-100v100zM25 675h100v-100h-100v100z" />
<glyph unicode="&#xec;" horiz-adv-x="625" d="M25 375h300v-100h-100v-200h100v-100h-300v100h100v200h-100v100zM25 675h100v-100h100v-100h-100v100h-100v100z" />
<glyph unicode="&#xed;" horiz-adv-x="625" d="M25 375h300v-100h-100v-200h100v-100h-300v100h100v200h-100v100zM125 575h100v100h100v-100h-100v-100h-100v100z" />
<glyph unicode="&#xee;" horiz-adv-x="625" d="M25 375h300v-100h-100v-200h100v-100h-300v100h100v200h-100v100zM25 575h100v100h100v-100h100v-100h-100v100h-100v-100h-100v100z" />
<glyph unicode="&#xef;" horiz-adv-x="625" d="M25 400h300v-100h-100v-200h100v-100h-300v100h100v200h-100v100zM25 600h100v-100h-100v100zM225 600h100v-100h-100v100z" />
<glyph unicode="&#xf0;" horiz-adv-x="625" d="M125 600h200v-100h100v-400h-100v-100h-300v100h-100v200h100v100h300v100h-200v100zM25 100h300v200h-300v-200z" />
<glyph unicode="&#xf1;" horiz-adv-x="625" d="M-75 450h400v-100h100v-400h-100v400h-300v-400h-100v500zM25 650h100v100h100v-100h100v100h100v-100h-100v-100h-100v100h-100v-100h-100v100z" />
<glyph unicode="&#xf2;" horiz-adv-x="625" d="M-75 350h100v100h300v-100h100v-300h-100v-100h-300v100h-100v300zM25 50h300v300h-300v-300zM225 550h-100v100h-100v100h100v-100h100v-100z" />
<glyph unicode="&#xf3;" horiz-adv-x="625" d="M-75 350h100v100h300v-100h100v-300h-100v-100h-300v100h-100v300zM25 50h300v300h-300v-300zM125 650h100v100h100v-100h-100v-100h-100v100z" />
<glyph unicode="&#xf4;" horiz-adv-x="625" d="M-75 350h100v100h300v-100h100v-300h-100v-100h-300v100h-100v300zM25 50h300v300h-300v-300zM25 650h100v100h100v-100h100v-100h-100v100h-100v-100h-100v100z" />
<glyph unicode="&#xf5;" horiz-adv-x="625" d="M-75 350h100v100h300v-100h100v-300h-100v-100h-300v100h-100v300zM25 50h300v300h-300v-300zM25 650h100v100h100v-100h100v100h100v-100h-100v-100h-100v100h-100v-100h-100v100z" />
<glyph unicode="&#xf6;" horiz-adv-x="625" d="M-75 375h100v100h300v-100h100v-300h-100v-100h-300v100h-100v300zM25 75h300v300h-300v-300zM225 675h100v-100h-100v100zM25 675h100v-100h-100v100z" />
<glyph unicode="&#xf7;" horiz-adv-x="575" d="M-25 325h500v-100h-500v100zM175 125h100v-100h-100v100zM175 525h100v-100h-100v100z" />
<glyph unicode="&#xf8;" horiz-adv-x="625" d="M-75 425h100v-200h100v-100h200v-100h-400v400zM25 525h300h100v-400h-100v200h-100v100h-200v100zM125 225v100h100v-100h-100z" />
<glyph unicode="&#xf9;" horiz-adv-x="625" d="M-75 450h100v-400h300v400h100v-400h-100v-100h-300v100h-100v400zM25 750h100v-100h100v-100h-100v100h-100v100z" />
<glyph unicode="&#xfa;" horiz-adv-x="625" d="M-75 450h100v-400h300v400h100v-400h-100v-100h-300v100h-100v400zM125 650h100v100h100v-100h-100v-100h-100v100z" />
<glyph unicode="&#xfb;" horiz-adv-x="625" d="M-75 450h100v-400h300v400h100v-400h-100v-100h-300v100h-100v400zM25 650h100v100h100v-100h100v-100h-100v100h-100v-100h-100v100z" />
<glyph unicode="&#xfc;" horiz-adv-x="625" d="M-75 475h100v-400h300v400h100v-400h-100v-100h-300v100h-100v400zM25 675h100v-100h-100v100zM225 675h100v-100h-100v100z" />
<glyph unicode="&#xfd;" horiz-adv-x="625" d="M-75 475h100v-300h300v300h100v-500h-100v-100h-300v100h300v100h-300v100h-100v300zM125 675h100v100h100v-100h-100v-100h-100v100z" />
<glyph unicode="&#xfe;" horiz-adv-x="575" d="M-25 625h100v-100h300v-100h100v-300h-100v-100h-300v-100h-100v700zM75 125h300v300h-300v-300z" />
<glyph unicode="&#xff;" horiz-adv-x="625" d="M-75 500h100v-300h300v300h100v-500h-100v-100h-300v100h300v100h-300v100h-100v300zM25 700h100v-100h-100v100zM225 700h100v-100h-100v100z" />
<glyph unicode="&#x152;" horiz-adv-x="625" d="M-175 500h100v100h600v-100h-300v-100h200v-100h-200v-200h300v-100h-600v100h-100v400zM-75 100h200v400h-200v-400z" />
<glyph unicode="&#x153;" horiz-adv-x="625" d="M-175 425h100v100h500v-100h100v-100h-100v-100h-200v-100h300v-100h-300v100h-100v-100h-200v100h-100v300zM-75 125h200v300h-200v-300zM225 325h200v100h-200v-100z" />
<glyph unicode="&#x160;" d="M-100 425h100v100h400v-100h-400v-100h400v-100h100v-200h-100v-100h-400v100h-100v100h100v-100h400v200h-400v100h-100v100zM0 825h100v-100h200v100h100v-100h-100v-100h-200v100h-100v100z" />
<glyph unicode="&#x161;" horiz-adv-x="625" d="M-75 350h100v100h300v-100h-300v-100h300v-100h100v-100h-100v-100h-400v100h400v100h-300v100h-100v100zM25 750h100v-100h200v100h100v-100h-100v-100h-200v100h-100v100z" />
<glyph unicode="&#x178;" horiz-adv-x="625" d="M-175 550h100v-100h100v-100h100v-100h100v100h100v100h100v100h100v-100h-100v-100h-100v-100h-100v-300h-100v300h-100v100h-100v100h-100v100zM25 750h100v-100h-100v100zM225 750h100v-100h-100v100z" />
<glyph unicode="&#x17d;" d="M-100 525h600v-100h-100v-100h-100v-100h-100v-100h-100v-100h400v-100h-600v100h100v100h100v100h100v100h100v100h-400v100zM0 825h100v-100h200v100h100v-100h-100v-100h-200v100h-100v100z" />
<glyph unicode="&#x17e;" horiz-adv-x="625" d="M-75 450h500v-100h-100v-100h-100v-100h-100v-100h300v-100h-500v100h100v100h100v100h100v100h-300v100zM25 750h100v-100h200v100h100v-100h-100v-100h-200v100h-100v100z" />
<glyph unicode="&#x192;" horiz-adv-x="625" d="M-75 25h200v500h100v100h200v-100h-200v-100h100v-100h-100v-300h-100v-100h-200v100z" />
<glyph unicode="&#x2c6;" horiz-adv-x="625" d="M-75 325h100v100h100v100h100v-100h100v-100h100v-100h-100v100h-100v100h-100v-100h-100v-100h-100v100z" />
<glyph unicode="&#x2dc;" d="M-100 300h100v100h200v-100h200v100h100v-100h-100v-100h-200v100h-200v-100h-100v100z" />
<glyph unicode="&#x401;" d="M-100 550h600v-100h-500v-100h400v-100h-400v-200h500v-100h-600v600zM0 750h100v-100h-100v100zM300 750h100v-100h-100v100z" />
<glyph unicode="&#x402;" d="M-100 600h400v-100h-200v-100h300v-100h100v-200h-100v-100h-200v100h200v200h-300v-300h-100v500h-100v100z" />
<glyph unicode="&#x403;" d="M-100 525h600v-100h-500v-500h-100v600zM200 725h100v100h100v-100h-100v-100h-100v100z" />
<glyph unicode="&#x404;" d="M-100 500h100v100h400v-100h100v-100h-100v100h-400v-100h200v-100h-200v-200h400v100h100v-100h-100v-100h-400v100h-100v400z" />
<glyph unicode="&#x405;" d="M-100 500h100v100h400v-100h-400v-100h400v-100h100v-200h-100v-100h-400v100h-100v100h100v-100h400v200h-400v100h-100v100z" />
<glyph unicode="&#x406;" horiz-adv-x="575" d="M-25 600h500v-100h-200v-400h200v-100h-500v100h200v400h-200v100z" />
<glyph unicode="&#x407;" horiz-adv-x="575" d="M-25 50h200v400h-200v100h500v-100h-200v-400h200v-100h-500v100zM275 750h100v-100h-100v100zM75 750h100v-100h-100v100z" />
<glyph unicode="&#x408;" d="M-100 300h100v-200h400v500h100v-500h-100v-100h-400v100h-100v200z" />
<glyph unicode="&#x409;" d="M-100 75h100v600h300v-300h100v-100h100v-200h-100v-100h-200v600h-100v-600h-200v100zM300 275v-200h100v198z" />
<glyph unicode="&#x40a;" horiz-adv-x="625" d="M-175 675h100v-300h200v300h100v-300h200v-100h100v-200h-100v-100h-300v300h-200v-300h-100v700zM225 75h200v200h-200v-200z" />
<glyph unicode="&#x40b;" d="M-100 600h400v-100h-200v-100h300v-100h100v-300h-100v300h-300v-300h-100v500h-100v100z" />
<glyph unicode="&#x40c;" d="M-100 525h100v-200h200v100h100v100h100v-100h-100v-100h-100v-100h100v-100h100v-100h100v-100h-100v100h-100v100h-100v100h-200v-300h-100v600zM100 725h100v100h100v-100h-100v-100h-100v100z" />
<glyph unicode="&#x40e;" horiz-adv-x="625" d="M-175 525h100v-100h100v-100h100v-100h100v100h100v100h100v100h100v-100h-100v-100h-100v-100h-100v-300h-100v300h-100v100h-100v100h-100v100zM25 825h100v-100h100v100h100v-100h-100v-100h-100v100h-100v100z" />
<glyph unicode="&#x40f;" horiz-adv-x="625" d="M-75 625h100v-500h300v500h100v-600h-200v-100h-100v100h-200v600z" />
<glyph unicode="&#x410;" d="M-100 500h100v100h400v-100h100v-500h-100v200h-400v-200h-100v500zM0 300h400v200h-400v-200z" />
<glyph unicode="&#x411;" d="M-100 600h600v-100h-500v-100h400v-100h100v-200h-100v-100h-500v600zM0 300v-200h400v198z" />
<glyph unicode="&#x412;" d="M-100 600h500v-100h100v-100h-100v-100h100v-200h-100v-100h-500v600zM0 100h400v200h-400v-200zM0 400h400v100h-400v-100z" />
<glyph unicode="&#x413;" d="M-100 600h600v-100h-500v-500h-100v600z" />
<glyph unicode="&#x414;" d="M-100 125h100v400h100v100h300v-500h100v-200h-100v100h-400v-100h-100v200zM100 125h200v400h-200v-400z" />
<glyph unicode="&#x415;" d="M-100 600h600v-100h-500v-100h400v-100h-400v-200h500v-100h-600v600z" />
<glyph unicode="&#x416;" horiz-adv-x="625" d="M-175 600h100v-100h100v-100h100v200h100v-200h100v100h100v100h100v-100h-100v-100h-100v-100h100v-100h100v-200h-100v200h-100v100h-100v-300h-100v300h-100v-100h-100v-200h-100v200h100v100h100v100h-100v100h-100v100z" />
<glyph unicode="&#x417;" d="M-100 500h100v100h400v-100h100v-100h-100v-100h100v-200h-100v-100h-400v100h-100v100h100v-100h400v200h-200v100h200v100h-400v-100h-100v100z" />
<glyph unicode="&#x418;" d="M-100 600h100v-400h100v100h100v100h100v100h100v100h100v-600h-100v400h-100v-100h-100v-100h-100v-100h-100v-100h-100v600z" />
<glyph unicode="&#x419;" d="M-100 525h100v-400h100v100h100v100h100v100h100v100h100v-600h-100v400h-100v-100h-100v-100h-100v-100h-100v-100h-100v600zM0 825h100v-100h200v100h100v-100h-100v-100h-200v100h-100v100z" />
<glyph unicode="&#x41a;" d="M-100 600h100v-200h200v100h100v100h100v-100h-100v-100h-100v-100h100v-100h100v-100h100v-100h-100v100h-100v100h-100v100h-200v-300h-100v600z" />
<glyph unicode="&#x41b;" horiz-adv-x="625" d="M-175 100h200v500h500v-600h-100v500h-300v-400h-100v-100h-200v100z" />
<glyph unicode="&#x41c;" d="M-100 600h100v-100h100v-100h200v100h100v100h100v-600h-100v400h-100v-100h-200v100h-100v-400h-100v600z" />
<glyph unicode="&#x41d;" d="M-100 600h100v-200h400v200h100v-600h-100v300h-400v-300h-100v600z" />
<glyph unicode="&#x41e;" d="M-100 500h100v100h400v-100h100v-400h-100v-100h-400v100h-100v400zM0 100h400v400h-400v-400z" />
<glyph unicode="&#x41f;" d="M-100 600h600v-600h-100v500h-400v-500h-100v600z" />
<glyph unicode="&#x420;" d="M-100 600h500v-100h100v-200h-100v-100h-400v-200h-100v600zM0 300h400v200h-400v-200z" />
<glyph unicode="&#x421;" d="M400 500h-400v-400h400v100h100v-100h-100v-100h-400v100h-100v400h100v100h400v-100h100v-100h-100v100z" />
<glyph unicode="&#x422;" horiz-adv-x="625" d="M-175 600h700v-100h-300v-500h-100v500h-300v100z" />
<glyph unicode="&#x423;" d="M-100 600h100v-300h400v300h100v-500h-100v-100h-400v100h400v100h-400v100h-100v300z" />
<glyph unicode="&#x424;" horiz-adv-x="625" d="M-175 500h100v100h500v-100h100v-300h-100v-100h-200v-100h-100v100h-200v100h-100v300zM125 500h-200v-300h200v300zM225 200h200v300h-200v-300z" />
<glyph unicode="&#x425;" d="M-100 600h100v-100h100v-100h200v100h100v100h100v-100h-100v-100h-100v-200h100v-100h100v-100h-100v100h-100v100h-200v-100h-100v-100h-100v100h100v100h100v200h-100v100h-100v100z" />
<glyph unicode="&#x426;" d="M-100 625h100v-500h300v500h100v-500h100v-200h-100v100h-500v600z" />
<glyph unicode="&#x427;" d="M-100 600h100v-300h400v300h100v-600h-100v200h-400v100h-100v300z" />
<glyph unicode="&#x428;" horiz-adv-x="625" d="M-175 600h100v-500h200v500h100v-500h200v500h100v-600h-700v600z" />
<glyph unicode="&#x429;" horiz-adv-x="625" d="M-175 625h100v-500h200v500h100v-500h200v500h100v-700h-100v100h-600v600z" />
<glyph unicode="&#x42a;" horiz-adv-x="625" d="M-175 600h200v-200h400v-100h100v-200h-100v-100h-500v500h-100v100zM25 100h400v200h-400v-200z" />
<glyph unicode="&#x42b;" horiz-adv-x="625" d="M-175 600h100v-200h300v-100h100v-200h-100v-100h-400v600zM425 600h100v-600h-100v600zM-75 100h300v200h-300v-200z" />
<glyph unicode="&#x42c;" d="M-100 600h100v-200h400v-100h100v-200h-100v-100h-500v600zM0 100h400v200h-400v-200z" />
<glyph unicode="&#x42d;" d="M200 400h200v100h-400v-100h-100v100h100v100h400v-100h100v-400h-100v-100h-400v100h-100v100h100v-100h400v200h-200v100z" />
<glyph unicode="&#x42e;" horiz-adv-x="625" d="M-175 600h100v-200h100v100h100v100h300v-100h100v-400h-100v-100h-300v100h-100v200h-100v-300h-100v600zM125 100h300v400h-300v-400z" />
<glyph unicode="&#x42f;" d="M-100 500h100v100h500v-600h-100v200h-300v-100h-100v-100h-100v100h100v200h-100v200zM0 300h400v200h-400v-200z" />
<glyph unicode="&#x430;" horiz-adv-x="625" d="M25 525h300v-100h100v-400h-400v100h-100v100h100v100h300v100h-300v100zM25 125h300v100h-300v-100z" />
<glyph unicode="&#x431;" horiz-adv-x="625" d="M-75 500h100v100h400v-100h-400v-100h300v-100h100v-200h-100v-100h-300v100h-100v200h100v100h-100v100zM25 100h300v200h-300v-200z" />
<glyph unicode="&#x432;" horiz-adv-x="625" d="M-75 525h400v-100h100v-100h-100v-100h100v-100h-100v-100h-400v500zM25 325h300v100h-300v-100zM25 125h300v100h-300v-100z" />
<glyph unicode="&#x433;" horiz-adv-x="625" d="M-75 525h500v-100h-400v-400h-100v500z" />
<glyph unicode="&#x434;" d="M-100 150h100v300h100v100h300v-400h100v-200h-100v100h-400v-100h-100v200zM300 450h-200v-300h200v300z" />
<glyph unicode="&#x435;" horiz-adv-x="625" d="M-75 425h100v100h300v-100h100v-100h-100v-100h-300v-100h400v-100h-400v100h-100v300zM25 325h300v100h-300v-100z" />
<glyph unicode="&#x436;" horiz-adv-x="625" d="M-175 525h100v-100h100v-100h100v200h100v-200h100v100h100v100h100v-100h-100v-100h-100v-100h100v-100h100v-100h-100v100h-100v100h-100v-200h-100v200h-100v-100h-100v-100h-100v100h100v100h100v100h-100v100h-100v100z" />
<glyph unicode="&#x437;" horiz-adv-x="625" d="M25 325h300v100h-400v100h400v-100h100v-100h-100v-100h100v-100h-100v-100h-400v100h400v100h-300v100z" />
<glyph unicode="&#x438;" horiz-adv-x="625" d="M-75 525h100v-300h100v100h100v100h100v100h100v-500h-100v300h-100v-100h-100v-100h-100v-100h-100v500z" />
<glyph unicode="&#x439;" horiz-adv-x="625" d="M-75 450h100v-300h100v100h100v100h100v100h100v-500h-100v300h-100v-100h-100v-100h-100v-100h-100v500zM25 750h100v-100h100v100h100v-100h-100v-100h-100v100h-100v100z" />
<glyph unicode="&#x43a;" horiz-adv-x="625" d="M-75 525h100v-200h200v100h100v100h100v-100h-100v-100h-100v-100h100v-100h100v-100h-100v100h-100v100h-200v-200h-100v500z" />
<glyph unicode="&#x43b;" horiz-adv-x="625" d="M-75 325h100v100h100v100h300v-500h-100v400h-200v-100h-100v-300h-100v300z" />
<glyph unicode="&#x43c;" horiz-adv-x="625" d="M-75 525h100v-100h100v-100h100v100h100v100h100v-500h-100v300h-100v-100h-100v100h-100v-300h-100v500z" />
<glyph unicode="&#x43d;" horiz-adv-x="625" d="M-75 525h100v-200h300v200h100v-500h-100v200h-300v-200h-100v500z" />
<glyph unicode="&#x43e;" horiz-adv-x="625" d="M-75 425h100v100h300v-100h100v-300h-100v-100h-300v100h-100v300zM25 125h300v300h-300v-300z" />
<glyph unicode="&#x43f;" horiz-adv-x="625" d="M-75 525h500v-500h-100v400h-300v-400h-100v500z" />
<glyph unicode="&#x440;" horiz-adv-x="625" d="M-75 550h400v-100h100v-200h-100v-100h-300v-200h-100v600zM325 450h-300v-200h300v200z" />
<glyph unicode="&#x441;" horiz-adv-x="625" d="M-75 425h100v100h400v-100h-400v-300h400v-100h-400v100h-100v300z" />
<glyph unicode="&#x442;" horiz-adv-x="625" d="M-75 525h500v-100h-200v-400h-100v400h-200v100z" />
<glyph unicode="&#x443;" horiz-adv-x="625" d="M-75 550h100v-300h300v300h100v-500h-100v-100h-300v100h300v100h-300v100h-100v300z" />
<glyph unicode="&#x444;" horiz-adv-x="625" d="M-175 425h100v100h200v100h100v-100h200v-100h100v-300h-100v-100h-200v-100h-100v100h-200v100h-100v300zM-75 425v-300h200v300h-200zM425 425h-200v-300h200v300z" />
<glyph unicode="&#x445;" horiz-adv-x="625" d="M-75 525h100v-100h100v-100h100v100h100v100h100v-100h-100v-100h-100v-100h100v-100h100v-100h-100v100h-100v100h-100v-100h-100v-100h-100v100h100v100h100v100h-100v100h-100v100z" />
<glyph unicode="&#x446;" d="M-100 550h100v-400h300v400h100v-400h100v-200h-100v100h-500v500z" />
<glyph unicode="&#x447;" horiz-adv-x="625" d="M-75 525h100v-200h300v200h100v-500h-100v200h-300v100h-100v200z" />
<glyph unicode="&#x448;" horiz-adv-x="625" d="M-75 525h100v-400h100v400h100v-400h100v400h100v-500h-500v500z" />
<glyph unicode="&#x449;" d="M-100 550h100v-400h100v400h100v-400h100v400h100v-400h100v-200h-100v100h-500v500z" />
<glyph unicode="&#x44a;" d="M-100 525h200v-200h300v-100h100v-100h-100v-100h-400v400h-100v100zM100 125h300v100h-300v-100z" />
<glyph unicode="&#x44b;" horiz-adv-x="625" d="M-175 525h100v-200h300v-100h100v-100h-100v-100h-400v500zM425 525h100v-500h-100v500zM-75 125h300v100h-300v-100z" />
<glyph unicode="&#x44c;" horiz-adv-x="625" d="M-75 525h100v-200h300v-100h100v-100h-100v-100h-400v500zM25 125h300v100h-300v-100z" />
<glyph unicode="&#x44d;" horiz-adv-x="625" d="M125 325h200v100h-300v-100h-100v100h100v100h300v-100h100v-300h-100v-100h-300v100h-100v100h100v-100h300v100h-200v100z" />
<glyph unicode="&#x44e;" d="M-100 525h100v-200h100v100h100v100h200v-100h100v-300h-100v-100h-200v100h-100v100h-100v-200h-100v500zM200 425v-300h200v298z" />
<glyph unicode="&#x44f;" horiz-adv-x="625" d="M-75 425h100v100h400v-500h-100v200h-200v-100h-100v-100h-100v100h100v200h-100v100zM25 325h300v100h-300v-100z" />
<glyph unicode="&#x451;" horiz-adv-x="625" d="M-75 375h100v100h300v-100h100v-100h-100v-100h-300v-100h400v-100h-400v100h-100v300zM25 275h300v100h-300v-100zM225 675h100v-100h-100v100zM25 675h100v-100h-100v100z" />
<glyph unicode="&#x452;" horiz-adv-x="625" d="M-75 550h100v100h100v-100h200v-100h100v-500h-100v-100h-200v100h200v500h-200v-400h-100v400h-100v100z" />
<glyph unicode="&#x453;" horiz-adv-x="625" d="M-75 450h500v-100h-400v-400h-100v500zM125 650h100v100h100v-100h-100v-100h-100v100z" />
<glyph unicode="&#x454;" horiz-adv-x="625" d="M-75 425h100v100h300v-100h100v-100h-100v100h-300v-100h200v-100h-200v-100h300v100h100v-100h-100v-100h-300v100h-100v300z" />
<glyph unicode="&#x455;" horiz-adv-x="625" d="M-75 425h100v100h300v-100h-300v-100h300v-100h100v-100h-100v-100h-400v100h400v100h-300v100h-100v100z" />
<glyph unicode="&#x456;" horiz-adv-x="625" d="M25 400h200v-300h100v-100h-300v100h100v200h-100v100zM125 600h100v-100h-100v100z" />
<glyph unicode="&#x457;" horiz-adv-x="625" d="M25 400h300v-100h-100v-200h100v-100h-300v100h100v200h-100v100zM25 600h100v-100h-100v100zM225 600h100v-100h-100v100z" />
<glyph unicode="&#x458;" d="M0 125h100v-100h200v400h100v-400h-100v-100h-200v100h-100v100zM300 625h100v-100h-100v100z" />
<glyph unicode="&#x459;" horiz-adv-x="575" d="M-125 125h100v400h300v-200h200v-100h100v-100h-100v-100h-300v400h-100v-400h-200v100zM275 125h200v100h-200v-100z" />
<glyph unicode="&#x45a;" horiz-adv-x="575" d="M-125 525h100v-200h200v200h100v-200h200v-100h100v-100h-100v-100h-300v200h-200v-200h-100v500zM275 125h200v100h-200v-100z" />
<glyph unicode="&#x45b;" horiz-adv-x="625" d="M-75 500h100v100h100v-100h200v-100h100v-400h-100v400h-200v-400h-100v400h-100v100z" />
<glyph unicode="&#x45c;" horiz-adv-x="625" d="M-75 450h100v-200h200v100h100v100h100v-100h-100v-100h-100v-100h100v-100h100v-100h-100v100h-100v100h-200v-200h-100v500zM125 650h100v100h100v-100h-100v-100h-100v100z" />
<glyph unicode="&#x45e;" horiz-adv-x="625" d="M-75 475h100v-300h300v300h100v-500h-100v-100h-300v100h300v100h-300v100h-100v300zM25 775h100v-100h100v100h100v-100h-100v-100h-100v100h-100v100z" />
<glyph unicode="&#x45f;" horiz-adv-x="625" d="M-75 550h100v-400h300v400h100v-500h-200v-100h-100v100h-200v500z" />
<glyph unicode="&#x490;" d="M-100 575h500v100h100v-200h-500v-500h-100v600z" />
<glyph unicode="&#x491;" horiz-adv-x="625" d="M-75 500h400v100h100v-200h-400v-400h-100v500z" />
<glyph unicode="&#x2013;" horiz-adv-x="575" d="M-25 325h500v-100h-500v100z" />
<glyph unicode="&#x2014;" d="M-100 325h600v-100h-600v100z" />
<glyph unicode="&#x2018;" d="M100 525h100v-200h100v-100h-100v100h-100v200z" />
<glyph unicode="&#x2019;" horiz-adv-x="650" d="M50 325h100v200h100v-200h-100v-100h-100v100z" />
<glyph unicode="&#x201a;" d="M100 125h100v200h100v-200h-100v-100h-100v100z" />
<glyph unicode="&#x201c;" horiz-adv-x="575" d="M-25 525h100v-200h100v-100h-100v100h-100v200zM275 525h100v-200h100v-100h-100v100h-100v200z" />
<glyph unicode="&#x201d;" horiz-adv-x="625" d="M-75 325h100v200h100v-200h-100v-100h-100v100zM225 325h100v200h100v-200h-100v-100h-100v100z" />
<glyph unicode="&#x201e;" horiz-adv-x="625" d="M-75 125h100v200h100v-200h-100v-100h-100v100zM225 125h100v200h100v-200h-100v-100h-100v100z" />
<glyph unicode="&#x2020;" horiz-adv-x="625" d="M-75 500h200v100h100v-100h200v-100h-200v-400h-100v400h-200v100z" />
<glyph unicode="&#x2021;" horiz-adv-x="625" d="M-75 500h200v100h100v-100h200v-100h-200v-200h200v-100h-200v-100h-100v100h-200v100h200v200h-200v100z" />
<glyph unicode="&#x2022;" d="M0 400h100v100h200v-100h100v-200h-100v-100h-200v100h-100v200z" />
<glyph unicode="&#x2026;" horiz-adv-x="625" d="M-75 225h100v-100h-100v100zM325 225h100v-100h-100v100zM125 225h100v-100h-100v100z" />
<glyph unicode="&#x2030;" d="M-100 100h100v100h100v100h100v100h100v100h100v100h100v-100h-100v-100h-100v-100h-100v-100h100v-200h-100v200h-100v-100h-100v-100h-100v100zM400 200h100v-200h-100v200zM-100 600h100v-200h-100v200z" />
<glyph unicode="&#x2039;" horiz-adv-x="575" d="M75 400h100v100h100v100h100v-100h-100v-100h-100v-200h100v-100h100v-100h-100v100h-100v100h-100v200z" />
<glyph unicode="&#x203a;" horiz-adv-x="625" d="M25 600h100v-100h100v-100h100v-200h-100v-100h-100v-100h-100v100h100v100h100v200h-100v100h-100v100z" />
<glyph unicode="&#x20ac;" d="M-100 425h100v100h100v100h400v-100h-400v-100h300v-100h-300v-100h300v-100h-300v-100h400v-100h-400v100h-100v100h-100v100h100v100h-100v100z" />
<glyph unicode="&#x2116;" horiz-adv-x="575" d="M-125 600h100v-100h100v-100h100v-100h100v300h100v-600h-100v200h-100v100h-100v100h-100v-400h-100v600zM475 600h100v-200h-100v200zM475 300h100v-100h-100v100z" />
<glyph unicode="&#x2122;" d="M-200 500h400v-100h100v-100h100v100h100v100h100v-400h-100v200h-100v-200h-100v200h-100v-200h-100v300h-100v-300h-100v300h-100v100z" />
<glyph unicode="&#x2212;" horiz-adv-x="575" d="M-25 325h500v-100h-500v100z" />
<glyph unicode="&#x25fc;" horiz-adv-x="525" d="M0 525h525v-525h-525v525z" />
<glyph horiz-adv-x="800" />
<glyph horiz-adv-x="800" />
</font>
</defs>
</svg>
